<svg xmlns="http://www.w3.org/2000/svg" xmlns:xlink="http://www.w3.org/1999/xlink" version="1.1" width="256" height="256" viewBox="0 0 256 256" xml:space="preserve">

<defs>
</defs>
<g style="stroke: none; stroke-width: 0; stroke-dasharray: none; stroke-linecap: butt; stroke-linejoin: miter; stroke-miterlimit: 10; fill: none; fill-rule: nonzero; opacity: 1;" transform="translate(1.4065934065934016 1.4065934065934016) scale(2.81 2.81)" >
	<path d="M 74.595 90 H 15.405 c -2.251 0 -4.083 -1.832 -4.083 -4.083 V 4.083 C 11.322 1.832 13.154 0 15.405 0 H 59.74 c 0.266 0 0.52 0.105 0.707 0.293 L 78.385 18.23 c 0.188 0.188 0.293 0.442 0.293 0.707 v 66.98 C 78.678 88.168 76.846 90 74.595 90 z M 15.405 2 c -1.148 0 -2.083 0.935 -2.083 2.083 v 81.834 c 0 1.148 0.935 2.083 2.083 2.083 h 59.189 c 1.148 0 2.083 -0.935 2.083 -2.083 V 19.351 L 59.326 2 H 15.405 z" style="stroke: none; stroke-width: 1; stroke-dasharray: none; stroke-linecap: butt; stroke-linejoin: miter; stroke-miterlimit: 10; fill: rgb(0,0,0); fill-rule: nonzero; opacity: 1;" transform=" matrix(1 0 0 1 0 0) " stroke-linecap="round" />
	<path d="M 77.678 19.937 H 62.55 c -2.101 0 -3.81 -1.709 -3.81 -3.809 V 1 c 0 -0.404 0.243 -0.769 0.617 -0.924 c 0.375 -0.154 0.804 -0.069 1.09 0.217 L 78.385 18.23 c 0.286 0.286 0.372 0.716 0.217 1.09 C 78.447 19.693 78.082 19.937 77.678 19.937 z M 60.74 3.414 v 12.714 c 0 0.998 0.812 1.809 1.81 1.809 h 12.714 L 60.74 3.414 z" style="stroke: none; stroke-width: 1; stroke-dasharray: none; stroke-linecap: butt; stroke-linejoin: miter; stroke-miterlimit: 10; fill: rgb(0,0,0); fill-rule: nonzero; opacity: 1;" transform=" matrix(1 0 0 1 0 0) " stroke-linecap="round" />
	<path d="M 65.551 79.291 H 24.449 c -0.552 0 -1 -0.447 -1 -1 v -9.864 c 0 -0.553 0.448 -1 1 -1 h 41.102 c 0.553 0 1 0.447 1 1 v 9.864 C 66.551 78.844 66.104 79.291 65.551 79.291 z M 25.449 77.291 h 39.102 v -7.864 H 25.449 V 77.291 z" style="stroke: none; stroke-width: 1; stroke-dasharray: none; stroke-linecap: butt; stroke-linejoin: miter; stroke-miterlimit: 10; fill: rgb(0,0,0); fill-rule: nonzero; opacity: 1;" transform=" matrix(1 0 0 1 0 0) " stroke-linecap="round" />
	<path d="M 65.551 69.427 H 24.449 c -0.552 0 -1 -0.447 -1 -1 v -9.864 c 0 -0.553 0.448 -1 1 -1 h 41.102 c 0.553 0 1 0.447 1 1 v 9.864 C 66.551 68.979 66.104 69.427 65.551 69.427 z M 25.449 67.427 h 39.102 v -7.864 H 25.449 V 67.427 z" style="stroke: none; stroke-width: 1; stroke-dasharray: none; stroke-linecap: butt; stroke-linejoin: miter; stroke-miterlimit: 10; fill: rgb(0,0,0); fill-rule: nonzero; opacity: 1;" transform=" matrix(1 0 0 1 0 0) " stroke-linecap="round" />
	<path d="M 65.551 59.563 H 24.449 c -0.552 0 -1 -0.447 -1 -1 v -9.864 c 0 -0.553 0.448 -1 1 -1 h 41.102 c 0.553 0 1 0.447 1 1 v 9.864 C 66.551 59.115 66.104 59.563 65.551 59.563 z M 25.449 57.563 h 39.102 v -7.864 H 25.449 V 57.563 z" style="stroke: none; stroke-width: 1; stroke-dasharray: none; stroke-linecap: butt; stroke-linejoin: miter; stroke-miterlimit: 10; fill: rgb(0,0,0); fill-rule: nonzero; opacity: 1;" transform=" matrix(1 0 0 1 0 0) " stroke-linecap="round" />
	<path d="M 45 79.291 c -0.552 0 -1 -0.447 -1 -1 V 48.698 c 0 -0.553 0.448 -1 1 -1 s 1 0.447 1 1 v 29.593 C 46 78.844 45.552 79.291 45 79.291 z" style="stroke: none; stroke-width: 1; stroke-dasharray: none; stroke-linecap: butt; stroke-linejoin: miter; stroke-miterlimit: 10; fill: rgb(0,0,0); fill-rule: nonzero; opacity: 1;" transform=" matrix(1 0 0 1 0 0) " stroke-linecap="round" />
</g>
</svg>